<svg xmlns="http://www.w3.org/2000/svg" version="1.1" xmlns:xlink="http://www.w3.org/1999/xlink" xmlns:svgjs="http://svgjs.dev/svgjs" width="1920" height="1080" preserveAspectRatio="none" viewBox="0 0 1920 1080"><g mask="url(&quot;#SvgjsMask1009&quot;)" fill="none"><path d="M1546.042,790.657C1628.574,789.11,1670.492,699.364,1707.911,625.787C1740.671,561.372,1767.672,487.818,1732.029,424.952C1696.021,361.443,1619.042,341.284,1546.042,340.291C1470.83,339.268,1389.397,355.042,1351.078,419.769C1312.229,485.39,1337.827,564.558,1373.31,632.059C1412.292,706.215,1462.279,792.227,1546.042,790.657" fill="rgba(203, 172, 192, 0.4)" class="triangle-float2"></path><path d="M210.028,386.096C234.461,384.533,256.231,372.298,269.205,351.535C283.1,329.299,288.849,302.077,277.214,278.579C264.255,252.407,239.229,232.442,210.028,232.019C180.191,231.587,154.307,250.742,139.386,276.584C124.463,302.428,119.925,334.972,136.102,360.05C151.281,383.581,182.083,387.884,210.028,386.096" fill="rgba(203, 172, 192, 0.4)" class="triangle-float3"></path><path d="M295.545,696.89C341.204,698.642,393.11,701.611,419.159,664.071C447.885,622.672,443.568,565.347,416.164,523.062C390.814,483.946,342.156,473.578,295.545,473.331C248.367,473.081,196.82,481.23,172.694,521.774C148.176,562.977,159.802,615.925,187.338,655.175C211.133,689.093,254.143,695.301,295.545,696.89" fill="rgba(203, 172, 192, 0.4)" class="triangle-float1"></path><path d="M1054.972,1252.081C1137.38,1254.257,1222.016,1220.41,1260.717,1147.622C1297.681,1078.101,1269.684,995.622,1226.252,929.947C1187.802,871.806,1124.672,835.669,1054.972,836.513C986.739,837.339,926.866,876.126,890.728,934.009C852.021,996.006,833.69,1072.291,867.224,1137.232C903.301,1207.098,976.368,1250.005,1054.972,1252.081" fill="rgba(203, 172, 192, 0.4)" class="triangle-float3"></path></g><defs><mask id="SvgjsMask1009"><rect width="1920" height="1080" fill="#ffffff"></rect></mask><style>
                @keyframes float1 {
                    0%{transform: translate(0, 0)}
                    50%{transform: translate(-10px, 0)}
                    100%{transform: translate(0, 0)}
                }

                .triangle-float1 {
                    animation: float1 5s infinite;
                }

                @keyframes float2 {
                    0%{transform: translate(0, 0)}
                    50%{transform: translate(-5px, -5px)}
                    100%{transform: translate(0, 0)}
                }

                .triangle-float2 {
                    animation: float2 4s infinite;
                }

                @keyframes float3 {
                    0%{transform: translate(0, 0)}
                    50%{transform: translate(0, -10px)}
                    100%{transform: translate(0, 0)}
                }

                .triangle-float3 {
                    animation: float3 6s infinite;
                }
            </style></defs></svg>